<svg xmlns="http://www.w3.org/2000/svg" xmlns:xlink="http://www.w3.org/1999/xlink" width="42px" height="42px" viewBox="0 0 42 42"><title>Stroke 1</title><g id="Approved" stroke="none" stroke-width="1" fill="none" fill-rule="evenodd"><g id="Hashgraph---Home---Desktop" transform="translate(-653.000000, -1960.000000)" fill="#FFFFFF"><path d="M682.935169,1977.96996 L681.946248,1984.04328 L684.221259,1984.04328 C685.675186,1984.04328 686.853993,1985.22259 686.853993,1986.67713 C686.853993,1988.132 685.675186,1989.31098 684.221259,1989.31098 L681.088306,1989.31098 L679.122312,2001.38322 C688.243747,1999.09539 695,1990.84157 695,1981.00678 C695,1979.97497 694.922005,1978.96193 694.778521,1977.96996 L682.935169,1977.96996 Z M665.125384,1984.04328 L666.114634,1977.96996 L663.964677,1977.96996 C662.51075,1977.96996 661.331944,1976.79065 661.331944,1975.33611 C661.331944,1973.88156 662.51075,1972.70226 663.964677,1972.70226 L666.972247,1972.70226 L668.940544,1960.61553 C659.787516,1962.8813 653,1971.14928 653,1981.00678 C653,1982.03826 653.077666,1983.05164 653.221479,1984.04328 L665.125384,1984.04328 Z M675.753401,1989.31098 L669.602677,1989.31098 L669.375603,1990.70494 C669.164985,1991.99717 668.048047,1992.91573 666.780386,1992.91573 C666.639535,1992.91573 666.497038,1992.9042 666.353554,1992.88116 C664.918714,1992.64707 663.944603,1991.29361 664.178587,1989.85783 L664.267442,1989.31098 L654.707657,1989.31098 C657.886683,1996.69201 665.171786,2001.882 673.685717,2002.00744 L675.753401,1989.31098 Z M677.600263,1977.96996 L671.449539,1977.96996 L670.46029,1984.04328 L676.611014,1984.04328 L677.600263,1977.96996 Z M674.374506,1960.00744 C682.86244,1960.15658 690.120886,1965.33868 693.292343,1972.70226 L683.793111,1972.70226 L683.821413,1972.52744 C684.055397,1971.09166 683.081615,1969.73819 681.646446,1969.50411 C680.210948,1969.27134 678.858381,1970.24455 678.624397,1971.68033 L678.458205,1972.70226 L672.307152,1972.70226 L674.374506,1960.00744 Z" id="Stroke-1"></path></g></g></svg>